<?xml version="1.0" encoding="utf-8"?>
<!-- Generator: Adobe Illustrator 24.1.1, SVG Export Plug-In . SVG Version: 6.00 Build 0)  -->
<svg version="1.1" id="Layer_1" xmlns="http://www.w3.org/2000/svg" xmlns:xlink="http://www.w3.org/1999/xlink" x="0px" y="0px"
	 viewBox="0 0 512 512" style="enable-background:new 0 0 512 512;" xml:space="preserve">
<style type="text/css">
	.st0{fill:#EA4335;}
	.st1{fill:#4285F4;}
	.st2{fill:#34A853;}
	.st3{fill:#FBBC05;}
</style>
<g>
	<path class="st0" d="M340.5,163.8l44.5-44.5l3-18.7C306.9,26.8,178,35.2,104.8,118c-20.3,23-35.4,51.7-43.4,81.3l15.9-2.2l89-14.7
		l6.9-7c39.6-43.5,106.5-49.3,152.3-12.3L340.5,163.8z"/>
	<path class="st1" d="M448.4,198c-10.2-37.7-31.2-71.5-60.4-97.4l-62.5,62.5c26.4,21.6,41.4,54,40.8,88.1v11.1
		c30.7,0,55.6,24.9,55.6,55.6c0,30.7-24.9,55-55.6,55H254.9L244,384.7v66.7l10.9,10.5h111.3c79.9,0.6,145.1-63,145.7-142.8
		C512.4,270.5,488.5,225.2,448.4,198"/>
	<path class="st2" d="M143.7,461.8h111.2v-89H143.7c-7.9,0-15.6-1.7-22.8-5l-15.8,4.8l-44.8,44.5l-3.9,15.1
		C81.6,451.3,112.2,461.9,143.7,461.8"/>
	<path class="st3" d="M143.7,173.1C63.9,173.5-0.5,238.7,0,318.5c0.3,44.6,21.1,86.6,56.4,113.8l64.5-64.5
		c-28-12.6-40.4-45.6-27.8-73.6c12.6-28,45.6-40.4,73.5-27.8c12.3,5.6,22.2,15.4,27.8,27.8l64.5-64.5
		C231.5,193.9,188.9,172.9,143.7,173.1"/>
</g>
</svg>
