<?xml version="1.0" encoding="utf-8"?>
<!-- Generator: Adobe Illustrator 24.1.1, SVG Export Plug-In . SVG Version: 6.00 Build 0)  -->
<svg version="1.1" id="Layer_1" xmlns="http://www.w3.org/2000/svg" xmlns:xlink="http://www.w3.org/1999/xlink" x="0px" y="0px"
	 viewBox="0 0 512 512" style="enable-background:new 0 0 512 512;" xml:space="preserve">
<g id="XMLID_1_">
	<path id="XMLID_3_" d="M258.3,68.8c-1.9-1.9-4.6-1.9-6.5,0L60.4,222.1c-0.9,0.9-1.9,2.8-1.9,3.7v282.5c0,0.9,0.9,2.8,2.8,2.8h132.9
		c0.9,0,2.8-0.9,2.8-2.8V336.4c0-0.9,0.9-2.8,2.8-2.8h113.4c0.9,0,2.8,0.9,2.8,2.8v171.9c0,0.9,0.9,2.8,2.8,2.8h132.9
		c0.9,0,2.8-0.9,2.8-2.8V225.8c0-1.9-0.9-2.8-1.9-3.7L258.3,68.8z"/>
	<path id="XMLID_4_" d="M504.6,192.3L272.3,6.5c-4.6-3.7-11.2-5.6-16.7-5.6c-5.6,0-12.1,1.9-16.7,5.6L137.5,88.3v-52
		c0-0.9-0.9-2.8-2.8-2.8H61.3c-0.9,0-2.8,0.9-2.8,2.8v113.4l-52,42.7c-3.7,2.8-6.5,7.4-6.5,12.1s1.9,9.3,4.6,13
		c2.8,2.8,7.4,4.6,12.1,4.6c3.7,0,7.4-0.9,11.2-3.7L253.7,36.2c0.9-0.9,0.9-0.9,1.9-0.9c0.9,0,0.9,0,1.9,0.9l225.8,182.1
		c2.8,2.8,6.5,3.7,11.2,3.7c4.6,0,9.3-1.9,12.1-4.6c3.7-3.7,5.6-8.4,5.6-13C511.1,199.8,508.3,195.1,504.6,192.3L504.6,192.3z"/>
</g>
</svg>
