<?xml version="1.0" encoding="utf-8"?>
<!-- Generator: Adobe Illustrator 24.1.1, SVG Export Plug-In . SVG Version: 6.00 Build 0)  -->
<svg version="1.1" id="Layer_1" xmlns="http://www.w3.org/2000/svg" xmlns:xlink="http://www.w3.org/1999/xlink" x="0px" y="0px"
	 viewBox="0 0 512 512" style="enable-background:new 0 0 512 512;" xml:space="preserve">
<g>
	<path d="M341.3,330.7h21.3c0-8.1-3-15.5-7-21c-7.1-9.6-16.3-15.3-26.9-20.4c-15.9-7.4-35.8-12.8-59-16.6
		c-23.2-3.8-49.6-5.9-77.8-5.9c-42.9,0-81.7,4.9-111.5,13.3c-14.9,4.3-27.6,9.4-38.1,16.4c-5.3,3.6-10.1,7.7-14.1,13.3
		c-4,5.5-7.1,12.9-7,21c0,8.1,3,15.5,7,21c7.1,9.6,16.3,15.3,26.9,20.4c15.9,7.4,35.8,12.8,59,16.6c23.2,3.8,49.6,5.9,77.8,5.9
		c42.9,0,81.7-4.9,111.5-13.3c14.9-4.3,27.6-9.4,38.1-16.4c5.3-3.6,10.1-7.7,14.1-13.3c4-5.5,7.1-12.9,7-21H341.3H320h6.3l-5.3-3.8
		c0,0-1,1.6-1,3.8h6.3l-5.3-3.8l-2.5,2.2c-6.2,4.7-23.2,11.5-45.6,15.8c-22.5,4.5-50.5,7.2-80.8,7.2c-39.6,0-75.4-4.7-99.7-11.7
		c-12.1-3.4-21.3-7.6-25.9-10.7c-2.3-1.5-3.3-2.7-3.3-2.8l-3.4,2.4l3.9-1.4l-0.5-1l-3.4,2.4l3.9-1.4l-7.8,2.8H64l-0.5-2.8l-7.8,2.8
		H64h-6.3l5.3,3.8c0,0,1-1.6,1-3.8h-6.3l5.3,3.8l2.5-2.2c6.2-4.7,23.2-11.5,45.6-15.8c22.5-4.5,50.5-7.2,80.8-7.2
		c39.6,0,75.4,4.7,99.7,11.7c12.1,3.4,21.3,7.6,25.9,10.7c2.3,1.5,3.3,2.7,3.3,2.8l3.4-2.4l-3.9,1.4l0.5,1l3.4-2.4l-3.9,1.4l7.8-2.8
		l-8.3,0l0.5,2.8l7.8-2.8l-8.3,0H341.3z M21.3,330.7V436c0,8,2.9,15.5,6.8,21c7,9.8,16.2,15.7,26.8,21c15.9,7.7,35.9,13.2,59.1,17.2
		c23.2,3.9,49.7,6.1,77.9,6.1c43,0,81.8-5,111.6-13.8c14.9-4.5,27.6-9.7,38.2-17c5.3-3.7,10.1-7.9,14-13.6c3.9-5.6,6.9-13,6.8-21
		V330.7H320V436h7.5l-7.1-2.4L320,436h7.5l-7.1-2.4l3.4,1.2l-3-2l-0.4,0.8l3.4,1.2l-3-2l-2.4,2.2c-6,4.8-23,11.9-45.4,16.3
		c-22.5,4.6-50.6,7.5-81,7.4c-39.5,0-75.3-4.8-99.6-12c-12.1-3.5-21.3-7.8-25.8-11c-2.3-1.6-3.4-2.8-3.4-2.9l-2.8,1.9l3.2-1.1
		l-0.4-0.8l-2.8,1.9l3.2-1.1l-7.1,2.4H64l-0.4-2.4l-7.1,2.4H64V330.7H21.3L21.3,330.7z M192,74.7c-48.6,0-92.6,4.8-125.9,13.1
		c-16.7,4.2-30.7,9.1-42.3,15.9c-5.8,3.4-11,7.4-15.6,12.9C3.8,121.9,0,129.8,0,138.7c0,8.9,3.8,16.7,8.3,22.1
		c8,9.5,17.9,14.8,29.6,19.7c17.6,7.2,39.9,12.5,66.1,16.3c26.2,3.8,56.1,5.9,88,5.9V160c-45.6,0-87-4.7-115.5-11.9
		c-14.2-3.5-25.2-7.8-30.9-11.2c-2.9-1.7-4.3-3.1-4.3-3.2l-3.7,3L42,135l-0.7-1.2l-3.7,3L42,135l-9,3.7h9.7L42,135l-9,3.7h9.7H33
		l9,3.7l0.7-3.7H33l9,3.7l-4.6-1.9l3.9,3.1l0.7-1.2l-4.6-1.9l3.9,3.1c0,0,0.9-1,3.1-2.4c3.8-2.5,10.8-5.7,20-8.6
		c27.9-8.9,75-15.3,127.6-15.3V74.7L192,74.7z M0,138.7v106.7c0,9.2,4.2,16.8,8.6,21.9c8,9,17.7,14.1,29.3,19
		c17.4,7.1,39.7,12.7,65.9,16.7c26.2,4,56.2,6.3,88.2,6.3v-42.7c-45.5,0-86.8-5.2-115.4-12.6c-14.2-3.6-25.3-8-31.2-11.4
		c-2.9-1.7-4.5-3.2-4.5-3.2l-4.1,3.6l4.9-2.1l-0.8-1.4l-4.1,3.6l4.9-2.1l-10.3,4.5h11.2l-0.9-4.5l-10.3,4.5h11.2V138.7H0L0,138.7z
		 M490.7,74.7H512c0-8-3-15.5-6.9-20.9c-7-9.7-16.2-15.4-26.6-20.5C462.7,25.8,443,20.5,420,16.6c-23-3.8-49.1-5.9-77-5.9
		c-42.5,0-80.9,4.9-110.4,13.3c-14.8,4.3-27.3,9.4-37.8,16.4c-5.2,3.6-10,7.7-14,13.3c-3.9,5.5-7,12.9-6.9,20.9c0,8,3,15.5,6.9,20.9
		c7,9.7,16.2,15.4,26.6,20.5c15.8,7.4,35.4,12.8,58.5,16.7c23,3.8,49.2,5.9,77,5.9c42.5,0,80.9-4.9,110.4-13.3
		c14.8-4.3,27.3-9.4,37.8-16.4c5.2-3.6,10-7.7,14-13.3c3.9-5.5,7-12.9,6.9-20.9H490.7h-21.3h6.2l-5.3-3.7c0,0-1,1.6-0.9,3.7h6.2
		l-5.3-3.7l-2.4,2.2c-6,4.7-22.9,11.5-45,15.7C400.6,93.3,372.9,96,343,96c-39.1,0-74.5-4.7-98.5-11.7c-12-3.4-21-7.5-25.5-10.7
		c-2.3-1.5-3.2-2.7-3.2-2.7l-3.3,2.4l3.8-1.3l-0.5-1l-3.3,2.4l3.8-1.3l-7.7,2.7h8.2l-0.4-2.7l-7.7,2.7h8.2h-6.2l5.3,3.7
		c0,0,1-1.6,0.9-3.7h-6.2l5.3,3.7l2.4-2.2c6-4.7,22.9-11.5,45-15.7c22.2-4.5,49.9-7.2,79.9-7.2c39.1,0,74.5,4.7,98.5,11.7
		c12,3.4,21,7.5,25.5,10.7c2.3,1.5,3.2,2.7,3.2,2.7l3.3-2.4l-3.8,1.3l0.5,1l3.3-2.4l-3.8,1.3l7.7-2.7l-8.2,0l0.4,2.7l7.7-2.7l-8.2,0
		H490.7z M341.3,352c42.7,0,81.5-5.4,111.3-14.1c14.9-4.4,27.5-9.5,37.9-16.3c5.2-3.4,10-7.3,14-12.7c4-5.2,7.4-12.5,7.4-21V74.7
		h-42.7V288h7.7l-6.4-4.9c0,0-1.3,1.9-1.3,4.9h7.7l-6.4-4.9l-2.7,2.3c-6.6,4.8-23.9,11.8-46.4,16.3c-22.5,4.7-50.4,7.7-80.2,7.7V352
		L341.3,352z M173.9,74.7v216.9h42.7V74.7H173.9z M170.7,181.3c0,8.6,3.5,15.9,7.6,21.1c7.3,9.1,16.4,14.5,27.1,19.5
		c16,7.3,36.2,12.9,59.6,17c23.4,4,50,6.4,78,6.4c42.7,0,81.2-5.4,110.5-14.1c14.7-4.4,27.2-9.5,37.4-16.4
		c5.1-3.5,9.8-7.4,13.8-12.7c3.9-5.2,7.2-12.5,7.2-20.8h-42.7h7.5l-6.3-4.7c0,0-1.2,1.8-1.2,4.7h7.5l-6.3-4.7l-2.6,2.2
		c-6.3,4.8-23.3,11.7-45.4,16.2c-22.2,4.7-49.8,7.7-79.6,7.7c-38.9,0-75.1-5.1-100.2-12.4c-12.5-3.6-22.1-7.8-27.2-11.1
		c-2.5-1.6-3.7-2.9-3.7-2.9l-4,3.1l4.7-1.9l-0.7-1.3l-4,3.1l4.7-1.9l-9.6,3.8h10.3l-0.7-3.8l-9.6,3.8h10.3H170.7L170.7,181.3z"/>
</g>
</svg>
