<?xml version="1.0" encoding="utf-8"?>
<!-- Generator: Adobe Illustrator 24.1.1, SVG Export Plug-In . SVG Version: 6.00 Build 0)  -->
<svg version="1.1" id="Layer_1" xmlns="http://www.w3.org/2000/svg" xmlns:xlink="http://www.w3.org/1999/xlink" x="0px" y="0px"
	 viewBox="0 0 512 512" style="enable-background:new 0 0 512 512;" xml:space="preserve">
<style type="text/css">
	.st0{fill:#B1060F;}
	.st1{fill:#E50914;}
</style>
<g>
	<polyline points="0,0 512,0 512,512 0,512 0,0 	"/>
	<path class="st0" d="M283.5,82.6l-0.1,76.8l-0.1,76.8l-6.3-17.8l0,0l-8.2,170.9c8,22.7,12.3,34.7,12.4,34.8
		c0.1,0.1,4.6,0.3,10.2,0.6c16.7,0.8,37.5,2.6,53.2,4.6c3.6,0.5,6.8,0.7,7,0.5c0.2-0.2,0.3-78.3,0.2-173.7l-0.1-173.4h-34H283.5"/>
	<path d="M283.5,82.6l-3,0l-0.1,76.8l-0.1,59.6l-0.6-1.7l0,0l0,0l-5.7,0.9l-8.2,171.5l0.2,0.5c4,11.3,7.1,20,9.2,25.9
		c1,2.9,1.8,5.2,2.4,6.7c0.3,0.7,0.5,1.3,0.6,1.7c0.1,0.2,0.1,0.3,0.2,0.5l0.1,0.2l0,0.1l0.1,0.1l0.1,0.2l0.1,0.2
		c0.1,0.1,0.1,0.2,0.3,0.4l0,0l0,0c0.4,0.4,0.6,0.5,0.8,0.5c0.3,0.2,0.4,0.2,0.6,0.2c0.2,0.1,0.3,0.1,0.3,0.1c0.2,0,0.4,0,0.6,0.1
		c1.4,0.1,5.2,0.3,9.9,0.6h0c16.7,0.8,37.4,2.6,53,4.5l0,0c1.4,0.2,2.8,0.3,4,0.4c1.2,0.1,2.1,0.2,2.8,0.2c0.2,0,0.4,0,0.7,0
		c0.1,0,0.3,0,0.5-0.1c0.1,0,0.3-0.1,0.5-0.2c0.2-0.1,0.5-0.2,0.9-0.5l0,0c0.5-0.5,0.6-0.8,0.7-1c0.2-0.4,0.2-0.5,0.2-0.6
		c0-0.2,0-0.3,0.1-0.3c0-0.2,0-0.3,0-0.5c0-1.2,0.1-5,0.1-11.2c0.1-18.6,0.1-58.4,0.1-107.9c0-17.1,0-35.4,0-54.4l-0.1-176.3h-37
		h-37l0,3L283.5,82.6v3h34h31.1l0.1,170.4c0,19,0,37.2,0,54.4c0,34.5,0,64.3-0.1,85.5c0,10.6,0,19-0.1,24.8c0,2.9,0,5.1,0,6.6
		c0,0.8,0,1.3,0,1.7c0,0.2,0,0.3,0,0.4l0,0l1.7,0.1l-1.7-0.2l0,0.1l1.7,0.1l-1.7-0.2l2.7,0.3l-2.7-0.6l0,0.2l2.7,0.3l-2.7-0.6
		l2.9,0.6l-2.8-1c-0.1,0.2-0.1,0.3-0.1,0.4l2.9,0.6l-2.8-1l2.8,1l-2.6-1.4c-0.1,0.2-0.1,0.3-0.2,0.4l2.8,1l-2.6-1.4l2.6,1.4l-2-2.2
		c-0.4,0.4-0.5,0.6-0.6,0.8l2.6,1.4l-2-2.2l0,0l0,0l1.9,2.1l-1.1-2.7c-0.2,0.1-0.4,0.2-0.8,0.5l1.9,2.1l-1.1-2.7l1,2.4l-0.5-2.6
		c-0.1,0-0.2,0-0.6,0.2l1,2.4l-0.5-2.6l0.3,1.4l-0.1-1.5l-0.2,0l0.3,1.4l-0.1-1.5l-0.1,0c-0.4,0-1.2,0-2.3-0.1
		c-1.1-0.1-2.4-0.2-3.8-0.4h0c-15.8-2-36.6-3.7-53.4-4.6h0c-2.8-0.1-5.3-0.3-7.1-0.4c-0.9-0.1-1.7-0.1-2.2-0.1c-0.2,0-0.4,0-0.5,0
		l0,0l0,0.1l0-0.1l0,0l0,0.1l0-0.1l-0.3,2.1l0.4-2.1l-0.1,0l-0.3,2.1l0.4-2.1l-0.6,2.7l0.8-2.7l-0.3-0.1l-0.6,2.7l0.8-2.7l-0.9,2.8
		l1.2-2.6l-0.3-0.1l-0.9,2.8l1.2-2.6l-1.2,2.7l2.1-2.1c-0.4-0.4-0.7-0.5-0.8-0.6l-1.2,2.7l2.1-2.1l-2.1,2.1l2.1-2.1l-2.1,2.1
		l2.5-1.6c-0.1-0.1-0.1-0.2-0.3-0.4l-2.1,2.1l2.5-1.6l-2.4,1.6l2.6-1.3l-0.2-0.3l-2.4,1.6l2.6-1.3l-2.4,1.3l2.5-1c0,0,0,0-0.1-0.2
		l-2.4,1.3l2.5-1l-0.9,0.4l0.9-0.4l0,0l-0.9,0.4l0.9-0.4c0,0-0.1-0.3-0.3-0.8c-1.1-3.2-5.3-14.8-12-33.9l-2.8,1l3,0.1l8.2-170.9
		l-3-0.1l-2.8,1l0,0l0,0l6.3,17.8l5.7-1l0.1-76.8l0.1-76.8L283.5,82.6v3V82.6"/>
	<path class="st0" d="M160.3,82.4v173.5c0,95.4,0.1,173.6,0.2,173.7c0.1,0.1,6-0.4,13.1-1.2c7.1-0.8,16.9-1.8,21.8-2.2
		c7.5-0.6,30-2.1,32.5-2.1c0.8,0,0.8-3.9,0.9-73.5l0.1-73.5l5.4,15.4c0.8,2.4,1.1,3.1,1.9,5.4l8.2-170.8c-1.7-4.9-0.8-2.3-2.8-7.9
		c-6.7-18.8-12.3-34.8-12.6-35.5l-0.5-1.3h-34.2H160.3"/>
	<path d="M160.3,82.4h-3v173.5c0,47.7,0,91.1,0.1,122.6c0,15.7,0,28.5,0.1,37.4c0,4.4,0,7.9,0,10.2c0,1.2,0,2.1,0,2.7
		c0,0.3,0,0.5,0,0.7l0,0.2l0,0.2l0,0.2l0.1,0.3c0,0.1,0.1,0.2,0.1,0.4c0.1,0.2,0.2,0.5,0.6,0.9l0,0c0.4,0.4,0.8,0.6,1,0.7
		c0.4,0.1,0.5,0.2,0.7,0.2c0.4,0.1,0.5,0,0.6,0c0.5,0,1,0,1.8-0.1c2.3-0.2,6.6-0.6,11.5-1.2h0c7.1-0.8,16.9-1.8,21.8-2.2l0,0
		c3.7-0.3,11.2-0.8,18.1-1.3c3.4-0.2,6.7-0.4,9.3-0.6c1.3-0.1,2.4-0.1,3.3-0.2c0.9,0,1.5-0.1,1.7-0.1h0c0.3,0,0.8-0.1,1.2-0.3
		c0.4-0.2,0.8-0.5,1-0.7c0.5-0.5,0.6-1,0.8-1.3c0.2-0.6,0.2-1.1,0.3-1.7c0.1-1.1,0.2-2.8,0.2-5.6c0.2-8.3,0.2-26.6,0.3-66.8
		l0.1-73.5l-3,0l-2.8,1l5.4,15.4l0,0c0.8,2.4,1.1,3.1,1.9,5.4l5.7-0.8l8.2-171.4l-0.2-0.5c-1.7-4.9-0.8-2.3-2.8-7.9l0,0
		c-6.7-18.9-12.3-34.8-12.6-35.5l-0.5-1.3l-0.7-2h-36.3h-37.2v3H160.3v3h34.2h34.2v-3l-2.8,1l0.5,1.3c0.2,0.7,5.9,16.7,12.6,35.5v0
		c2,5.6,1.1,3,2.8,7.9l2.8-1l-3-0.1l-8.2,170.8l3,0.1l2.8-1c-0.8-2.3-1.1-3.1-1.9-5.4l-5.4-15.4l-5.7,1l-0.1,73.5
		c-0.1,34.8-0.1,53.2-0.2,62.8c-0.1,4.8-0.1,7.5-0.2,8.8c0,0.3-0.1,0.6-0.1,0.7l0,0.1l0,0l2,0.5l-1.6-1.2c-0.4,0.5-0.4,0.7-0.4,0.7
		l2,0.5l-1.6-1.2l2.2,1.6l-1.3-2.4c-0.4,0.2-0.8,0.5-0.9,0.8l2.2,1.6l-1.3-2.4l1.3,2.5l0-2.8c-0.3,0-0.8,0.1-1.3,0.3l1.3,2.5l0-2.8
		h0c-0.4,0-1.1,0-2,0.1c-6.2,0.3-24.2,1.5-30.8,2l0,0c-5,0.4-14.8,1.4-21.9,2.2l0,0c-3.2,0.4-6.2,0.7-8.5,0.9
		c-1.1,0.1-2.1,0.2-2.8,0.3c-0.7,0.1-1.3,0.1-1.3,0.1v1.7l0.2-1.7l-0.2,0v1.7l0.2-1.7l-0.2,2.7l0.6-2.6c-0.2,0-0.3-0.1-0.4-0.1
		l-0.2,2.7l0.6-2.6l-0.7,2.8l1.1-2.7c-0.2-0.1-0.3-0.1-0.5-0.1l-0.7,2.8l1.1-2.7l-1.1,2.7l2.1-2.1c-0.4-0.4-0.7-0.5-1-0.6l-1.1,2.7
		l2.1-2.1l0,0l0,0l-2.1,2.1l2.7-1.2c-0.1-0.2-0.2-0.5-0.6-0.9l-2.1,2.1l2.7-1.2l-2.7,1.2l2.9-0.6c0-0.1,0-0.2-0.2-0.6l-2.7,1.2
		l2.9-0.6l-2.8,0.6l2.8-0.3c0,0,0-0.1,0-0.3l-2.8,0.6l2.8-0.3l-2.1,0.2l2.1-0.1l0-0.1l-2.1,0.2l2.1-0.1c0,0,0-0.5,0-1.2
		c-0.1-10.7-0.2-84.2-0.2-172.3V82.4H160.3v3V82.4"/>
	<path class="st1" d="M160.3,82.4l68.8,194.8v-0.1l5.4,15.4c30.2,85.5,46.5,131.4,46.5,131.4c0.1,0.1,4.6,0.3,10.2,0.6
		c16.7,0.8,37.5,2.6,53.2,4.6c3.6,0.4,6.7,0.7,7,0.5L283.2,236v0l-6.3-17.8c-6.2-17.4-10.3-29.1-35.1-99.1
		c-6.7-18.8-12.3-34.8-12.6-35.5l-0.5-1.3h-34.2H160.3"/>
	<path class="st0" d="M283.5,82.6l-0.1,76.8l-0.1,76.8l-6.3-17.8l0,0l-8.2,170.9c8,22.7,12.3,34.7,12.4,34.8
		c0.1,0.1,4.6,0.3,10.2,0.6c16.7,0.8,37.5,2.6,53.2,4.6c3.6,0.5,6.8,0.7,7,0.5c0.2-0.2,0.3-78.3,0.2-173.7l-0.1-173.4h-34H283.5"/>
	<path d="M283.5,82.6l-3,0l-0.1,76.8l-0.1,59.6l-0.6-1.7l0,0l0,0l-5.7,0.9l-8.2,171.5l0.2,0.5c4,11.3,7.1,20,9.2,25.9
		c1,2.9,1.8,5.2,2.4,6.7c0.3,0.7,0.5,1.3,0.6,1.7c0.1,0.2,0.1,0.3,0.2,0.5l0.1,0.2l0,0.1l0.1,0.1l0.1,0.2l0.1,0.2
		c0.1,0.1,0.1,0.2,0.3,0.4l0,0l0,0c0.4,0.4,0.6,0.5,0.8,0.5c0.3,0.2,0.4,0.2,0.6,0.2c0.2,0.1,0.3,0.1,0.3,0.1c0.2,0,0.4,0,0.6,0.1
		c1.4,0.1,5.2,0.3,9.9,0.6h0c16.7,0.8,37.4,2.6,53,4.5l0,0c1.4,0.2,2.8,0.3,4,0.4c1.2,0.1,2.1,0.2,2.8,0.2c0.2,0,0.4,0,0.7,0
		c0.1,0,0.3,0,0.5-0.1c0.1,0,0.3-0.1,0.5-0.2c0.2-0.1,0.5-0.2,0.9-0.5l0,0c0.5-0.5,0.6-0.8,0.7-1c0.2-0.4,0.2-0.5,0.2-0.6
		c0-0.2,0-0.3,0.1-0.3c0-0.2,0-0.3,0-0.5c0-1.2,0.1-5,0.1-11.2c0.1-18.6,0.1-58.4,0.1-107.9c0-17.1,0-35.4,0-54.4l-0.1-176.3h-37
		h-37l0,3L283.5,82.6v3h34h31.1l0.1,170.4c0,19,0,37.2,0,54.4c0,34.5,0,64.3-0.1,85.5c0,10.6,0,19-0.1,24.8c0,2.9,0,5.1,0,6.6
		c0,0.8,0,1.3,0,1.7c0,0.2,0,0.3,0,0.4l0,0l1.7,0.1l-1.7-0.2l0,0.1l1.7,0.1l-1.7-0.2l2.7,0.3l-2.7-0.6l0,0.2l2.7,0.3l-2.7-0.6
		l2.9,0.6l-2.8-1c-0.1,0.2-0.1,0.3-0.1,0.4l2.9,0.6l-2.8-1l2.8,1l-2.6-1.4c-0.1,0.2-0.1,0.3-0.2,0.4l2.8,1l-2.6-1.4l2.6,1.4l-2-2.2
		c-0.4,0.4-0.5,0.6-0.6,0.8l2.6,1.4l-2-2.2l0,0l0,0l1.9,2.1l-1.1-2.7c-0.2,0.1-0.4,0.2-0.8,0.5l1.9,2.1l-1.1-2.7l1,2.4l-0.5-2.6
		c-0.1,0-0.2,0-0.6,0.2l1,2.4l-0.5-2.6l0.3,1.4l-0.1-1.5l-0.2,0l0.3,1.4l-0.1-1.5l-0.1,0c-0.4,0-1.2,0-2.3-0.1
		c-1.1-0.1-2.4-0.2-3.8-0.4h0c-15.8-2-36.6-3.7-53.4-4.6h0c-2.8-0.1-5.3-0.3-7.1-0.4c-0.9-0.1-1.7-0.1-2.2-0.1c-0.2,0-0.4,0-0.5,0
		l0,0l0,0.1l0-0.1l0,0l0,0.1l0-0.1l-0.3,2.1l0.4-2.1l-0.1,0l-0.3,2.1l0.4-2.1l-0.6,2.7l0.8-2.7l-0.3-0.1l-0.6,2.7l0.8-2.7l-0.9,2.8
		l1.2-2.6l-0.3-0.1l-0.9,2.8l1.2-2.6l-1.2,2.7l2.1-2.1c-0.4-0.4-0.7-0.5-0.8-0.6l-1.2,2.7l2.1-2.1l-2.1,2.1l2.1-2.1l-2.1,2.1
		l2.5-1.6c-0.1-0.1-0.1-0.2-0.3-0.4l-2.1,2.1l2.5-1.6l-2.4,1.6l2.6-1.3l-0.2-0.3l-2.4,1.6l2.6-1.3l-2.4,1.3l2.5-1c0,0,0,0-0.1-0.2
		l-2.4,1.3l2.5-1l-0.9,0.4l0.9-0.4l0,0l-0.9,0.4l0.9-0.4c0,0-0.1-0.3-0.3-0.8c-1.1-3.2-5.3-14.8-12-33.9l-2.8,1l3,0.1l8.2-170.9
		l-3-0.1l-2.8,1l0,0l0,0l6.3,17.8l5.7-1l0.1-76.8l0.1-76.8L283.5,82.6v3V82.6"/>
	<path class="st0" d="M160.3,82.4v173.5c0,95.4,0.1,173.6,0.2,173.7c0.1,0.1,6-0.4,13.1-1.2c7.1-0.8,16.9-1.8,21.8-2.2
		c7.5-0.6,30-2.1,32.5-2.1c0.8,0,0.8-3.9,0.9-73.5l0.1-73.5l5.4,15.4c0.8,2.4,1.1,3.1,1.9,5.4l8.2-170.8c-1.7-4.9-0.8-2.3-2.8-7.9
		c-6.7-18.8-12.3-34.8-12.6-35.5l-0.5-1.3h-34.2H160.3"/>
	<path d="M160.3,82.4h-3v173.5c0,47.7,0,91.1,0.1,122.6c0,15.7,0,28.5,0.1,37.4c0,4.4,0,7.9,0,10.2c0,1.2,0,2.1,0,2.7
		c0,0.3,0,0.5,0,0.7l0,0.2l0,0.2l0,0.2l0.1,0.3c0,0.1,0.1,0.2,0.1,0.4c0.1,0.2,0.2,0.5,0.6,0.9l0,0c0.4,0.4,0.8,0.6,1,0.7
		c0.4,0.1,0.5,0.2,0.7,0.2c0.4,0.1,0.5,0,0.6,0c0.5,0,1,0,1.8-0.1c2.3-0.2,6.6-0.6,11.5-1.2h0c7.1-0.8,16.9-1.8,21.8-2.2l0,0
		c3.7-0.3,11.2-0.8,18.1-1.3c3.4-0.2,6.7-0.4,9.3-0.6c1.3-0.1,2.4-0.1,3.3-0.2c0.9,0,1.5-0.1,1.7-0.1h0c0.3,0,0.8-0.1,1.2-0.3
		c0.4-0.2,0.8-0.5,1-0.7c0.5-0.5,0.6-1,0.8-1.3c0.2-0.6,0.2-1.1,0.3-1.7c0.1-1.1,0.2-2.8,0.2-5.6c0.2-8.3,0.2-26.6,0.3-66.8
		l0.1-73.5l-3,0l-2.8,1l5.4,15.4l0,0c0.8,2.4,1.1,3.1,1.9,5.4l5.7-0.8l8.2-171.4l-0.2-0.5c-1.7-4.9-0.8-2.3-2.8-7.9l0,0
		c-6.7-18.9-12.3-34.8-12.6-35.5l-0.5-1.3l-0.7-2h-36.3h-37.2v3H160.3v3h34.2h34.2v-3l-2.8,1l0.5,1.3c0.2,0.7,5.9,16.7,12.6,35.5v0
		c2,5.6,1.1,3,2.8,7.9l2.8-1l-3-0.1l-8.2,170.8l3,0.1l2.8-1c-0.8-2.3-1.1-3.1-1.9-5.4l-5.4-15.4l-5.7,1l-0.1,73.5
		c-0.1,34.8-0.1,53.2-0.2,62.8c-0.1,4.8-0.1,7.5-0.2,8.8c0,0.3-0.1,0.6-0.1,0.7l0,0.1l0,0l2,0.5l-1.6-1.2c-0.4,0.5-0.4,0.7-0.4,0.7
		l2,0.5l-1.6-1.2l2.2,1.6l-1.3-2.4c-0.4,0.2-0.8,0.5-0.9,0.8l2.2,1.6l-1.3-2.4l1.3,2.5l0-2.8c-0.3,0-0.8,0.1-1.3,0.3l1.3,2.5l0-2.8
		h0c-0.4,0-1.1,0-2,0.1c-6.2,0.3-24.2,1.5-30.8,2l0,0c-5,0.4-14.8,1.4-21.9,2.2l0,0c-3.2,0.4-6.2,0.7-8.5,0.9
		c-1.1,0.1-2.1,0.2-2.8,0.3c-0.7,0.1-1.3,0.1-1.3,0.1v1.7l0.2-1.7l-0.2,0v1.7l0.2-1.7l-0.2,2.7l0.6-2.6c-0.2,0-0.3-0.1-0.4-0.1
		l-0.2,2.7l0.6-2.6l-0.7,2.8l1.1-2.7c-0.2-0.1-0.3-0.1-0.5-0.1l-0.7,2.8l1.1-2.7l-1.1,2.7l2.1-2.1c-0.4-0.4-0.7-0.5-1-0.6l-1.1,2.7
		l2.1-2.1l0,0l0,0l-2.1,2.1l2.7-1.2c-0.1-0.2-0.2-0.5-0.6-0.9l-2.1,2.1l2.7-1.2l-2.7,1.2l2.9-0.6c0-0.1,0-0.2-0.2-0.6l-2.7,1.2
		l2.9-0.6l-2.8,0.6l2.8-0.3c0,0,0-0.1,0-0.3l-2.8,0.6l2.8-0.3l-2.1,0.2l2.1-0.1l0-0.1l-2.1,0.2l2.1-0.1c0,0,0-0.5,0-1.2
		c-0.1-10.7-0.2-84.2-0.2-172.3V82.4H160.3v3V82.4"/>
	<g>
		<defs>
			<path id="SVGID_1_" d="M247.2,134.4L239.4,298l-2.8,0.4c12.3,34.8,22.2,62.7,29.5,83.3l7.8-163.6l2.8-0.4
				C271.1,201.9,267,190.4,247.2,134.4"/>
		</defs>
		<clipPath id="SVGID_2_">
			<use xlink:href="#SVGID_1_"  style="overflow:visible;"/>
		</clipPath>
		<g style="clip-path:url(#SVGID_2_);">
			
				<image style="overflow:visible;" width="45" height="260" xlink:href="EC79D4FD.jpg"  transform="matrix(0.9604 0 0 -0.9604 234.8321 383.0476)">
			</image>
		</g>
	</g>
	<g>
		<defs>
			<path id="SVGID_3_" d="M286.3,149.2l0,10.1l-0.1,76.8l-5.7,1l-1.3-3.7l-7.4,155.3c6.1,17.3,10.1,28.4,11.5,32.4
				c0.3,0,0.7,0,1.1,0.1c1.8,0.1,4.3,0.2,7.1,0.4h0c16.8,0.8,37.6,2.6,53.4,4.6h0c1.4,0.2,2.6,0.3,3.7,0.4c0-1.5,0-3.5,0-6
				c0-5.8,0.1-14.2,0.1-24.8c0-17.3,0.1-40.4,0.1-67.1L286.3,149.2"/>
		</defs>
		<clipPath id="SVGID_4_">
			<use xlink:href="#SVGID_3_"  style="overflow:visible;"/>
		</clipPath>
		<g style="clip-path:url(#SVGID_4_);">
			
				<image style="overflow:visible;" width="83" height="292" xlink:href="EC79D4FF.jpg"  transform="matrix(0.9604 0 0 -0.9604 270.3654 428.1844)">
			</image>
		</g>
	</g>
	<g>
		<defs>
			<path id="SVGID_5_" d="M283.4,140.8l0,18.6l-0.1,76.8l-6.3-17.8c-0.1-0.2-0.1-0.4-0.2-0.6l0,0l-2.8,0.4l-7.8,163.6
				c9.8,27.7,14.9,42.1,15,42.2c0.1,0.1,4.6,0.3,10.2,0.6c16.7,0.8,37.5,2.6,53.2,4.6c2.8,0.4,5.4,0.6,6.4,0.6c0.3,0,0.5,0,0.5-0.1
				c0.1-0.1,0.2-38.4,0.2-92.5l-2.9-8.5c0,26.7,0,49.8-0.1,67.1c0,10.6,0,19-0.1,24.8c0,2.5,0,4.5,0,6c-1.1-0.1-2.4-0.2-3.7-0.4h0
				c-15.8-2-36.6-3.7-53.4-4.6h0c-2.8-0.1-5.3-0.3-7.1-0.4c-0.4,0-0.8,0-1.1-0.1c-1.5-4.1-5.4-15.1-11.5-32.4l7.4-155.3l1.3,3.7
				l5.7-1l0.1-76.8l0-10.1L283.4,140.8"/>
		</defs>
		<clipPath id="SVGID_6_">
			<use xlink:href="#SVGID_5_"  style="overflow:visible;"/>
		</clipPath>
		<g style="clip-path:url(#SVGID_6_);">
			
				<image style="overflow:visible;" width="92" height="304" xlink:href="EC79D4FA.jpg"  transform="matrix(0.9604 0 0 -0.9604 264.6032 431.0655)">
			</image>
		</g>
	</g>
	<g>
		<defs>
			<path id="SVGID_7_" d="M226.7,85.3h-32.1h-31.3v102.3L226,354c0-1.1,0-2.2,0-3.4l0.1-73.5l5.7-1l2.3,6.6l7.4-155.2
				c-1.5-4.1-0.7-2-2.6-7.4v0C233,103.3,227.9,88.7,226.7,85.3"/>
		</defs>
		<clipPath id="SVGID_8_">
			<use xlink:href="#SVGID_7_"  style="overflow:visible;"/>
		</clipPath>
		<g style="clip-path:url(#SVGID_8_);">
			
				<image style="overflow:visible;" width="85" height="283" xlink:href="EC79D4FB.jpg"  transform="matrix(0.9604 0 0 -0.9604 161.8448 355.1971)">
			</image>
		</g>
	</g>
	<g>
		<defs>
			<path id="SVGID_9_" d="M228.8,82.4h-34.2h-34.2v97.4l3,7.8V85.3h31.3h32.1c1.2,3.4,6.4,17.9,12.3,34.8v0c1.9,5.4,1.1,3.2,2.6,7.4
				l-7.4,155.2l-2.3-6.6l-5.7,1l-0.1,73.5c0,1.2,0,2.3,0,3.4l2.9,7.8c0-4.2,0-6.4,0-11.2l0.1-73.5l5.4,15.4c0.7,2,1.4,4,2.1,6
				l2.8-0.4l7.8-163.6c-1.7-4.8-3.5-9.9-5.4-15.3c-6.7-18.8-12.3-34.8-12.6-35.5L228.8,82.4"/>
		</defs>
		<clipPath id="SVGID_10_">
			<use xlink:href="#SVGID_9_"  style="overflow:visible;"/>
		</clipPath>
		<g style="clip-path:url(#SVGID_10_);">
			
				<image style="overflow:visible;" width="93" height="294" xlink:href="EC79D505.jpg"  transform="matrix(0.9604 0 0 -0.9604 158.9637 362.88)">
			</image>
		</g>
	</g>
	<path class="st1" d="M160.3,82.4l68.8,194.8v-0.1l5.4,15.4c30.2,85.5,46.5,131.4,46.5,131.4c0.1,0.1,4.6,0.3,10.2,0.6
		c16.7,0.8,37.5,2.6,53.2,4.6c3.6,0.4,6.7,0.7,7,0.5L283.2,236v0l-6.3-17.8c-6.2-17.4-10.3-29.1-35.1-99.1
		c-6.7-18.8-12.3-34.8-12.6-35.5l-0.5-1.3h-34.2H160.3z"/>
</g>
</svg>
