<?xml version="1.0" encoding="utf-8"?>
<!-- Generator: Adobe Illustrator 24.1.1, SVG Export Plug-In . SVG Version: 6.00 Build 0)  -->
<svg version="1.1" id="Layer_1" xmlns="http://www.w3.org/2000/svg" xmlns:xlink="http://www.w3.org/1999/xlink" x="0px" y="0px"
	 viewBox="0 0 512 512" style="enable-background:new 0 0 512 512;" xml:space="preserve">
<style type="text/css">
	.st0{fill:#333333;}
</style>
<g id="XMLID_2_">
	<path id="XMLID_7_" class="st0" d="M349,0H163c-32.4,0-58,26.5-58,58V454c0,32.4,26.5,58,58,58h186c32.4,0,58-26.5,58-58V58
		C407,26.5,381.4,0,349,0z M256,489c-19.6,0-35-15.4-35-35c0-19.6,15.4-35,35-35c19.6,0,35,15.4,35,35C291,473.6,275.6,489,256,489z
		 M361,395.9H151V70h209.1v326H361z"/>
</g>
</svg>
