<?xml version="1.0" encoding="utf-8"?>
<!-- Generator: Adobe Illustrator 24.1.1, SVG Export Plug-In . SVG Version: 6.00 Build 0)  -->
<svg version="1.1" id="Layer_1" xmlns="http://www.w3.org/2000/svg" xmlns:xlink="http://www.w3.org/1999/xlink" x="0px" y="0px"
	 viewBox="0 0 512 512" style="enable-background:new 0 0 512 512;" xml:space="preserve">
<style type="text/css">
	.st0{fill-rule:evenodd;clip-rule:evenodd;fill:#1ED760;}
</style>
<g>
	<path class="st0" d="M407.4,226.9c-82.5-49-218.6-53.5-297.4-29.6c-12.6,3.8-26-3.3-29.9-15.9c-3.8-12.7,3.3-26,16-29.9
		c90.4-27.4,240.8-22.1,335.8,34.3c11.4,6.8,15.1,21.4,8.4,32.8C433.5,230,418.8,233.7,407.4,226.9 M404.7,299.5
		c-5.8,9.4-18.1,12.3-27.4,6.6c-68.8-42.3-173.7-54.5-255.1-29.8c-10.6,3.2-21.7-2.8-24.9-13.3c-3.2-10.6,2.8-21.7,13.3-24.9
		c93-28.2,208.6-14.6,287.6,34C407.5,277.9,410.5,290.2,404.7,299.5 M373.4,369.2c-4.6,7.5-14.4,9.9-21.9,5.3
		c-60.1-36.7-135.8-45-224.9-24.7c-8.6,2-17.1-3.4-19.1-12c-2-8.6,3.4-17.1,12-19.1c97.5-22.3,181.2-12.7,248.6,28.5
		C375.6,351.9,378,361.7,373.4,369.2 M256,0C114.6,0,0,114.6,0,256c0,141.4,114.6,256,256,256s256-114.6,256-256
		C512,114.6,397.4,0,256,0"/>
</g>
</svg>
