<?xml version="1.0" encoding="utf-8"?>
<!-- Generator: Adobe Illustrator 27.0.0, SVG Export Plug-In . SVG Version: 6.00 Build 0)  -->
<svg version="1.1" id="Layer_1" xmlns="http://www.w3.org/2000/svg" xmlns:xlink="http://www.w3.org/1999/xlink" x="0px" y="0px"
	 viewBox="0 0 512 512" style="enable-background:new 0 0 512 512;" xml:space="preserve">
<style type="text/css">
	.st0{fill:#FF0000;}
	.st1{fill:#FFFFFF;}
</style>
<g id="XMLID_2_">
	<path id="XMLID_6_" class="st0" d="M501.34,132c-5.89-22.16-23.29-39.7-45.31-45.59C416.05,75.61,256,75.61,256,75.61
		s-160.05,0-200.03,10.8C33.95,92.3,16.55,109.83,10.66,132C0,172.12,0,256,0,256s0,83.88,10.66,124
		c5.89,22.16,23.29,39.7,45.31,45.59c39.98,10.8,200.03,10.8,200.03,10.8s160.05,0,200.03-10.8c22.02-5.89,39.42-23.43,45.31-45.59
		C512,339.88,512,256,512,256S512,172.12,501.34,132z"/>
	<polygon id="XMLID_7_" class="st1" points="203.68,332.17 337.5,256 203.68,179.83 	"/>
</g>
</svg>
